<?xml version="1.0" encoding="UTF-8" standalone="no"?><!DOCTYPE svg PUBLIC "-//W3C//DTD SVG 1.1//EN" "http://www.w3.org/Graphics/SVG/1.1/DTD/svg11.dtd"><svg width="100%" height="100%" viewBox="0 0 71 92" version="1.1" xmlns="http://www.w3.org/2000/svg" xmlns:xlink="http://www.w3.org/1999/xlink" xml:space="preserve" xmlns:serif="http://www.serif.com/" style="fill-rule:evenodd;clip-rule:evenodd;stroke-linecap:square;stroke-miterlimit:1.5;"><rect id="compass" x="0" y="0" width="70.3" height="91.4" style="fill:none;"/><clipPath id="_clip1"><rect x="0" y="0" width="70.3" height="91.4"/></clipPath><g clip-path="url(#_clip1)"><g id="compass1" serif:id="compass" opacity="0.9"><path d="M35.072,10.342l0,51.882" style="fill:none;stroke:#2a2a28;stroke-width:1.5px;"/><path d="M61.091,36.283l-51.882,0" style="fill:none;stroke:#2a2a28;stroke-width:1.5px;"/><text x="32.13px" y="5.555px" style="font-family:'NeueHaasUnicaW1G-Bold', 'Neue Haas Unica W1G', sans-serif;font-weight:700;font-size:7.782px;fill:#2a2a28;">N</text></g><path d="M0.677,76.805l0,3.839l68.897,0l0,-3.839" style="fill:none;stroke:#2a2a28;stroke-opacity:0.9;stroke-width:1.5px;"/><g><path d="M26.021,86.927l0,-0.91l-3.299,0l-0.296,3.12l1.113,0.07c0.07,-0.326 0.342,-0.544 0.747,-0.544c0.498,0 0.833,0.303 0.833,0.895c0,0.599 -0.312,0.91 -0.849,0.91c-0.397,0 -0.747,-0.226 -0.762,-0.646l-1.129,0c0,0.965 0.739,1.564 1.883,1.564c1.215,0 2.024,-0.731 2.024,-1.875c0,-1.035 -0.716,-1.743 -1.759,-1.743c-0.397,0 -0.77,0.132 -1.027,0.397l-0.016,0l0.133,-1.238l2.404,0Z" style="fill:#2a2a28;fill-rule:nonzero;"/><path d="M33.562,87.215c-0.607,0 -0.965,0.257 -1.26,0.677c-0.218,-0.443 -0.623,-0.677 -1.175,-0.677c-0.475,0 -0.81,0.171 -1.098,0.545l-0.015,0l0,-0.452l-1.028,0l0,3.954l1.09,0l0,-2.031c0,-0.74 0.249,-1.16 0.724,-1.16c0.404,0 0.622,0.296 0.622,0.802l0,2.389l1.09,0l0,-2.031c0,-0.747 0.257,-1.16 0.724,-1.16c0.381,0 0.622,0.273 0.622,0.872l0,2.319l1.09,0l0,-2.428c0,-1.074 -0.537,-1.619 -1.386,-1.619Z" style="fill:#2a2a28;fill-rule:nonzero;"/><path d="M37.057,86.655l0,-0.934l-1.09,0l0,0.934l1.09,0Zm0,4.607l0,-3.954l-1.09,0l0,3.954l1.09,0Z" style="fill:#2a2a28;fill-rule:nonzero;"/><rect x="38.115" y="85.721" width="1.09" height="5.541" style="fill:#2a2a28;fill-rule:nonzero;"/><path d="M41.975,90.616c-0.467,0 -0.864,-0.288 -0.895,-1.105l2.841,0c0,-0.436 -0.039,-0.739 -0.125,-1.012c-0.249,-0.801 -0.918,-1.315 -1.829,-1.315c-1.237,0 -1.961,0.903 -1.961,2.07c0,1.261 0.724,2.132 1.969,2.132c1.051,0 1.736,-0.599 1.891,-1.323l-1.113,0c-0.054,0.32 -0.342,0.553 -0.778,0.553Zm-0.008,-2.662c0.436,0 0.794,0.273 0.864,0.872l-1.727,0c0.085,-0.599 0.42,-0.872 0.863,-0.872Z" style="fill:#2a2a28;fill-rule:nonzero;"/><path d="M46.224,87.184c-0.98,0 -1.634,0.506 -1.634,1.214c0,0.918 0.708,1.074 1.37,1.245c0.615,0.164 0.91,0.234 0.91,0.576c0,0.234 -0.194,0.381 -0.576,0.381c-0.451,0 -0.692,-0.225 -0.692,-0.622l-1.105,0c0,0.957 0.677,1.408 1.774,1.408c1.074,0 1.743,-0.498 1.743,-1.237c0,-0.965 -0.778,-1.144 -1.486,-1.331c-0.599,-0.155 -0.848,-0.225 -0.848,-0.506c0,-0.225 0.186,-0.365 0.537,-0.365c0.389,0 0.622,0.171 0.622,0.576l1.043,0c0,-0.88 -0.623,-1.339 -1.658,-1.339Z" style="fill:#2a2a28;fill-rule:nonzero;"/></g></g></svg>